Patient4_TMGait_0pt4_03_left_16_EMG.mot
version=1
nRows=13
nColumns=33
inDegrees=no
endheader
time	1LAddLong	2LGlutMax	3LGlutMed	4LIliopsoas	5LSemiMemb	6LBicFemLong	7LRecFem	8LVastMed	9LVastLat	10LGasMed	11LTibAnt	12lTibPost	13LPeroneusLong	14LSol	15LExtDigLong	16LFlexDigLong	17RAddLong	18RGlutMax	19RGlutMed	20RIliopsoas	21RSemiMemb	22RBicFemLong	23RRecFem	24RVastMed	25RVastLat	26RGasMed	27RTibAnt	28RTibPost	29RPeroneusLong	30RSol	31RExtDigLong	32RFlexDigLong
20.77	-0.007935	-0.11063	-0.035248	0.017242	0.007172	0.032654	0.070496	0.023651	-0.16144	-0.021667	0.31464	-0.009308	0.016632	-0.043488	-0.5806	-0.012665	0.018005	0.14618	0.060883	-0.017548	-0.083008	0.028992	0.069122	-0.072937	-0.002289	-0.002747	0.072021	0.034485	-0.30823	0.31418	0.003662	-0.014496
20.771	0.001526	-0.11429	0.004272	0.01297	0.008698	0.037689	0.079498	0.015869	-0.16388	-0.028381	0.024872	-0.006256	0.059357	-0.031433	-0.17349	0.001831	0.012207	0.18601	-0.046387	-0.005035	-0.13214	-0.020752	0.058289	-0.08606	0.006561	-0.002441	0.062103	0.005188	0.793	0.289	-0.001068	-0.007782
20.772	0.001526	-0.13931	0.003815	0.018463	-0.000305	0.053558	0.08194	0.016632	-0.16235	-0.006256	-0.18158	-0.007324	0.065155	-0.082703	0.086975	-0.012054	0.000458	0.26199	0.25726	-0.001068	-0.076447	-0.043182	0.015717	-0.077667	0.007629	0.001526	0.035095	-0.090027	0.80017	0.11673	0.001526	-0.019379
20.773	-0.002747	-0.14816	0.001526	-0.001373	0.014343	0.05722	0.069885	0.018311	-0.16037	0.026093	-0.16739	-0.002289	-0.030365	-0.067444	0.10178	-0.006104	-0.009155	0.36224	0.69122	0.078125	0.081024	-0.001373	0.033112	-0.037842	0.022278	-0.000916	0.005493	-0.11169	0.26032	0.30243	-0.001068	-0.011292
20.774	0.000916	-0.1976	0.010834	-0.022888	0.00473	0.054932	0.057983	0.018616	-0.17242	0.000153	-0.023041	-0.002136	0.003204	-0.017548	-0.09552	-0.011597	0.006409	0.25696	0.72998	0.12436	0.22842	0.001526	0.04425	-0.048828	0.03067	0.001068	-0.021057	0.059509	-0.65781	0.21744	0.00061	-0.018158
20.775	0.00061	-0.22324	-0.000763	-0.018616	0.006104	0.03418	0.05188	0.014343	-0.1709	-0.055542	0.049591	-0.000763	0.061188	0.009918	-0.14282	0.014191	0.014648	0.25971	0.36529	0.039978	0.067291	0.011749	0.091095	-0.028839	0.023346	-0.006561	-0.01358	0.1268	-0.70541	-0.018005	0.000305	-0.005646
20.776	-0.008698	-0.26901	-0.013428	-0.028534	0.004425	0.00061	0.063629	0.019531	-0.17319	-0.04837	0.029297	-0.003204	0.096741	-0.055237	-0.29388	0.004425	0.018005	0.14557	-0.18875	0.032654	-0.085449	0.011749	0.14771	0.039825	-0.035858	-0.009155	0.000153	0.069275	-0.6221	0.075226	0.00061	-0.003204
20.777	0.011749	-0.2388	-0.009003	-0.003815	0.006409	-0.003357	0.053711	0.018616	-0.15961	-0.028992	-0.14877	-0.00351	0.076447	-0.12543	-0.26504	-0.003815	0.037079	0.25803	-0.061188	-0.00946	0.12955	-0.020752	0.16556	-0.007477	-0.028534	-0.030823	0.000763	0.015259	-0.59631	0.12405	-0.001526	-0.00824
20.778	0.011749	-0.23102	0.017395	-0.010071	0.018005	0.003967	0.041962	0.016327	-0.15808	-0.019379	-0.11887	0.001526	0.094452	-0.068207	-0.17746	-0.003052	0.037537	0.32638	0.73868	-0.041656	0.070648	0.026093	0.1239	-0.018463	-0.02243	-0.012817	-0.035553	-0.006866	0.23102	-0.065765	0.003815	0.001984
20.779	-0.001831	-0.27054	0.000305	-0.018921	0.011597	0.018768	0.042267	0.015564	-0.15625	-0.019989	-0.052338	0.000763	0.059814	-0.094604	0.26657	0.011139	0.009613	0.32379	0.3009	0.060883	-0.3418	0.13458	0.05127	-0.018616	0.028381	-0.017395	-0.048523	-0.023804	0.18158	-0.070801	0.001221	-0.001984
20.78	-0.009918	-0.30243	-0.042267	-0.012512	0.016937	-0.002747	0.045624	0.009155	-0.1593	-0.024719	0.033569	0.00351	0.020752	-0.12161	0.064392	0.008087	-0.022583	0.29633	0.73608	0.026398	-0.17288	0.09613	-0.15656	-0.015564	0.023956	-0.040588	-0.033569	-0.021667	-0.10956	-0.064087	0.000305	-0.001678
20.781	0	-0.3212	-0.0177	-0.00061	-0.000305	-0.014343	0.032043	0.007172	-0.15533	-0.028687	0.035858	0.000458	0.003967	-0.026093	-0.035553	0.000305	-0.021515	0.30563	0.19516	-0.004883	0.10269	0.11292	-0.18951	-0.030212	0.012512	0	-0.091705	-0.034943	0.12054	0.035248	-0.000305	0.00351
20.782	-0.009613	-0.27084	-0.009766	0.019379	-0.001526	0.030212	0.030975	0.014801	-0.16663	-0.001526	-0.071259	0.008698	0.040283	0.00946	-0.038757	-0.00885	-0.01709	0.26871	0.13443	-0.019379	0.16953	0.072021	-0.11307	0.018463	0.068665	0.013733	-0.032501	-0.028992	-0.25925	0.1355	0.000153	-0.006561
